<svg xmlns="http://www.w3.org/2000/svg" viewBox="0 0 73.32 75.16"><defs><style>.cls-1{isolation:isolate;}.cls-2{mix-blend-mode:darken;}.cls-3{fill:#fff;}</style></defs><title>logo</title><g class="cls-1"><g id="Layer_1" data-name="Layer 1"><rect x="32.78" y="12.36" width="12.95" height="25.75" rx="6.48" ry="6.48" transform="translate(2.71 -21.16) rotate(32.07)"/><rect x="39.76" y="12.61" width="12.95" height="25.75" rx="6.48" ry="6.48" transform="translate(82.27 18.36) rotate(147.93)"/><rect x="64.28" y="12.1" width="12.95" height="25.75" rx="6.48" ry="6.48" transform="translate(100.77 79.54) rotate(-147.93)"/><rect x="57.3" y="11.86" width="12.95" height="25.75" rx="6.48" ry="6.48" transform="translate(-20.08 33.46) rotate(-32.07)"/><rect x="14.67" y="36" width="22.35" height="22.72" rx="8.59" ry="8.59"/><path d="M45.11,40.55a8.23,8.23,0,0,1,8.22,8.22v5.54a8.23,8.23,0,0,1-8.22,8.22H39.94a8.23,8.23,0,0,1-8.22-8.22V48.77a8.23,8.23,0,0,1,8.22-8.22h5.16m0-.75H39.94a9,9,0,0,0-9,9v5.54a9,9,0,0,0,9,9h5.16a9,9,0,0,0,9-9V48.77a9,9,0,0,0-9-9Z" transform="translate(-16.68 -4.17)"/><g class="cls-2"><path class="cls-3" d="M62.11,79.33v-28H90v28ZM79.86,68a2.31,2.31,0,0,1-2.13,2.11,10.84,10.84,0,0,1-2.1,0A2.21,2.21,0,0,1,73.52,68c-.11-2-.11-3.91-.06-5.86a2.12,2.12,0,0,1,1.9-2.1c1.32-.25,2.62-.35,3.59.9a1.6,1.6,0,0,0,1.11.47c2,0,4,0,6.07,0,.78,0,1-.3.92-1.06a6,6,0,0,0-1.5-3A8.73,8.73,0,0,0,82,54.7a14.43,14.43,0,0,0-12.51.69,7.85,7.85,0,0,0-3.58,5,19.2,19.2,0,0,0-.33,5.22,35.47,35.47,0,0,0,.2,3.55,7.34,7.34,0,0,0,1.74,4,9.44,9.44,0,0,0,5.54,3A15.4,15.4,0,0,0,80.52,76,11.48,11.48,0,0,0,84,74.39a7.35,7.35,0,0,0,2.77-3.76c.77-2.31.51-4.7.52-7.06,0-.62-.34-.88-1-.88H78.39c-.73,0-1,.21-1,.93,0,1.19,0,2.37,0,3.56,0,.55.27.8.82.79Z" transform="translate(-16.68 -4.17)"/><path d="M72.08,54.89h-1.8c-.61,0-.91-.25-.91-.83,0-1.24,0-2.48,0-3.72,0-.75.27-1,1.07-1H79.2c.71,0,1.09.27,1.09.92,0,2.47.27,5-.57,7.37a7.72,7.72,0,0,1-3.06,3.92,13,13,0,0,1-3.85,1.63,17.9,17.9,0,0,1-8.19.22,10.58,10.58,0,0,1-6.11-3.14,7.46,7.46,0,0,1-1.92-4.19,35.08,35.08,0,0,1-.22-3.7A19,19,0,0,1,56.73,47a8.23,8.23,0,0,1,3.95-5.21A16.7,16.7,0,0,1,74.47,41a9.57,9.57,0,0,1,3.88,2.85A6.14,6.14,0,0,1,80,47c.11.79-.16,1.1-1,1.1-2.23,0-4.46,0-6.7,0a1.81,1.81,0,0,1-1.22-.49c-1.08-1.31-2.51-1.2-4-.94a2.26,2.26,0,0,0-2.1,2.2c-.05,2,0,4.08.07,6.12a2.37,2.37,0,0,0,2.34,2.14,12.61,12.61,0,0,0,2.31,0A2.48,2.48,0,0,0,72.08,54.89Z" transform="translate(-16.68 -4.17)"/></g><polygon points="49.16 47.83 54.66 47.83 54.66 47.83 49.16 47.83 49.16 47.83"/><rect class="cls-3" x="21.92" y="42.2" width="8.13" height="10.59" rx="2.94" ry="2.94"/><path class="cls-3" d="M34.88,10.77h0c-1,.89-2.21.22-2.7-1.49h0c-.48-1.71-.06-3.83.93-4.72h0c1-.89,2.21-.22,2.7,1.49h0C36.3,7.76,35.88,9.88,34.88,10.77Z" transform="translate(-16.68 -4.17)"/><rect x="44.8" y="37.74" width="10.68" height="66.87" rx="3.26" ry="3.26" transform="translate(104.64 16.86) rotate(90)"/><rect y="5.36" width="10.57" height="66.85" rx="3.26" ry="3.26"/></g></g></svg>